<svg width="285" height="160" viewBox="0 0 285 160" fill="none" xmlns="http://www.w3.org/2000/svg">
<g clip-path="url(#clip0_6_544)">
<mask id="mask0_6_544" style="mask-type:alpha" maskUnits="userSpaceOnUse" x="0" y="17" width="285" height="125">
<rect y="17.0497" width="284.904" height="124.043" fill="url(#paint0_linear_6_544)"/>
</mask>
<g mask="url(#mask0_6_544)">
<path d="M249.196 33.341L233.092 27.9617L166.774 28.1693L155.293 24.0452L145.58 28.0803L104.073 27.9667L87.6258 20.4252H63.7117L60.0126 27.9642H39.1699L0 90.3415L43.6029 139.558H241.395L284.997 90.3415L249.193 33.3386L249.196 33.341ZM240.389 137.327H44.6085L2.78232 90.1142L40.4079 30.1955H61.4087L65.1053 22.6565H87.139L103.581 30.1955L146.022 30.3116L155.35 26.4346L166.386 30.4006L232.731 30.193L247.728 35.2017L282.215 90.1093L240.389 137.322V137.327Z" fill="url(#paint1_linear_6_544)"/>
</g>
<path d="M282.218 90.114L240.389 137.324H44.6085L2.78226 90.114L40.4078 30.1953H61.4086L65.1052 22.6563H87.1389L103.583 30.1953L146.022 30.3139L155.35 26.4369L166.386 30.4028L232.731 30.1953L247.728 35.2064L282.218 90.114Z" fill="url(#paint2_linear_6_544)"/>
<path d="M282.212 90.1139L247.73 35.2064L232.728 30.1977L166.388 30.4003L155.352 26.4344L146.019 30.3114L103.58 30.1977L87.1384 22.6588H65.1071L61.4105 30.1977H40.4122L2.78415 90.1139H27.9461L46.9109 104.211H77.6251L82.2236 90.1139H102.147L106.726 70.1682H111.27L117.408 67.4946L116.12 81.0306L133.091 90.1139H282.212Z" fill="#4A357D"/>
<path d="M16.1082 82.7481H37.544L41.2282 75.6811H31.7224L38.4484 63.8896L49.4689 59.8767L52.9505 53.2051L42.4612 56.8547L48.0432 47.0672L44.7543 42.098H50.8798H58.7425L61.1072 37.5638H44.4849L16.1082 82.7481Z" fill="white"/>
<path d="M69.7013 30.0222L57.2574 55.4139L72.3452 64.3687L78.2657 67.4278L69.3059 72.2932L62.9827 88.7721H52.8344L63.6869 63.6843L55.5796 58.8362L40.2522 90.1064L49.3429 96.8448H72.281L83.645 61.9941L68.1149 53.447L76.4742 34.124H83.9465L89.0317 36.2614L81.8387 39.6194L76.9289 52.4216L85.2981 56.9187L92.9482 33.4568L85.5205 30.0222H69.7013Z" fill="white"/>
<path d="M97.6751 37.5634L84.6976 82.7476H96.279L100.86 62.8019H109.736L120.761 58.0008L122.805 41.4107L114.295 37.5634H97.6727H97.6751ZM112.558 47.1977L110.779 57.0445H102.185L105.617 42.0951H113.48L119.281 44.4549L112.558 47.1952V47.1977Z" fill="white"/>
<path d="M127.653 37.5634L123.917 76.8494L134.938 82.7476H156.373L153.524 41.4107L144.278 37.5634H127.656H127.653ZM144.434 51.4651L144.71 75.6782H135.205L136.467 42.0951H144.33L150.371 44.4549L144.436 51.4651H144.434Z" fill="white"/>
<path d="M159.862 41.428L164.347 82.7476H175.929L172.615 62.8019H181.491L185.78 82.7476H197.364L192.168 63.6841L185.35 60.7979L190.619 58.0008L185.047 37.5634H168.424L159.862 41.428V41.428ZM180.255 57.0445H171.661L170.035 47.2496L163.329 44.4574L169.178 42.0976H177.041L180.255 57.047V57.0445Z" fill="white"/>
<path d="M189.343 42.0976H197.085L210.9 82.7476H222.484L208.281 47.0074L200.169 42.0432H213.927L211.936 37.5634H188.021L189.343 42.0976Z" fill="white"/>
<path d="M252.67 56.9185L242.897 41.3588L231.53 37.5634H214.908L223.191 55.4137L246.821 64.3685L253.275 75.6806H243.767L237.513 63.6841L224.777 58.836L233.134 76.8494L247.453 82.7476H268.889L255.855 61.9939L232.173 53.4468L228.854 47.0816L220.134 42.0976H234.117L240.006 52.4213L252.67 56.9185Z" fill="white"/>
<path d="M155.74 32.1494C154.527 33.333 153.153 34.4301 151.643 35.4259C153.294 36.4316 154.863 37.5781 156.328 38.8457C157.571 37.5781 158.94 36.4316 160.413 35.4259C158.727 34.4301 157.161 33.333 155.74 32.1494Z" fill="#E2D45C"/>
<path d="M29.1702 77.1633L36.126 64.9666C33.5463 65.2606 30.9889 65.5621 28.4537 65.8759L18.7897 81.2651H36.645L38.7823 77.1633H29.1702V77.1633Z" fill="url(#paint3_linear_6_544)"/>
<path d="M79.042 61.1536C76.2795 61.3339 73.5342 61.5267 70.8062 61.7318L73.0647 63.071L80.4851 66.9035L81.854 62.7004L79.042 61.1536V61.1536ZM70.4924 73.333L64.0036 90.2543H50.5788L61.8119 64.2892L59.1086 62.6732C57.7941 62.7869 56.482 62.903 55.1773 63.0241L42.1281 89.6489L49.8326 95.3618H71.2041L80.0848 68.1267L70.4924 73.333V73.333Z" fill="url(#paint4_linear_6_544)"/>
<path d="M113.698 59.461L109.431 61.3192H99.6826L95.1014 81.2649H86.668L92.6749 60.3481C99.5887 59.9848 106.599 59.6883 113.698 59.461Z" fill="url(#paint5_linear_6_544)"/>
<path d="M154.785 81.2651H135.311L125.486 76.0093L127.095 59.1103C129.504 59.0609 131.921 59.0214 134.347 58.9892L133.665 77.1633H146.21L146.003 58.8929C147.112 58.8904 148.224 58.8879 149.339 58.8879C150.643 58.8879 151.945 58.8904 153.243 58.8954L154.785 81.2651V81.2651Z" fill="url(#paint6_linear_6_544)"/>
<path d="M195.425 81.2649H186.979L182.69 61.3192H170.866L174.179 81.2649H165.677L163.258 58.9742C170.493 59.0632 177.651 59.2238 184.723 59.4511L181.904 60.9486L190.928 64.7687L195.425 81.2649V81.2649Z" fill="url(#paint7_linear_6_544)"/>
<path d="M212.122 60.6865C209.705 60.5457 207.276 60.4122 204.835 60.2887L211.964 81.2648H220.301L212.122 60.6865Z" fill="url(#paint8_linear_6_544)"/>
<path d="M255.49 64.1982C253.012 63.9388 250.516 63.6867 248.001 63.4446L255.829 77.1634H242.868L236.459 64.8703L228.297 61.7618C228.114 61.747 227.934 61.7346 227.751 61.7223L234.237 75.7006L247.746 81.2652H266.209L255.49 64.1982V64.1982Z" fill="url(#paint9_linear_6_544)"/>
<path fill-rule="evenodd" clip-rule="evenodd" d="M118.108 115.998V112.948L109.685 116.082H109.667V119.21H109.685L118.108 122.343V119.289L113.791 117.638L118.108 115.998V115.998Z" fill="#996DFF"/>
<path fill-rule="evenodd" clip-rule="evenodd" d="M166.901 122.185V119.136L171.215 117.495L166.901 115.854V112.805L175.312 115.936H175.332V119.067H175.312L166.901 122.182V122.185ZM163.288 108.498L158.341 124.377H161.279L166.226 108.498H163.288Z" fill="#996DFF"/>
<path fill-rule="evenodd" clip-rule="evenodd" d="M130.486 112.373C131.321 113.292 131.761 114.503 131.709 115.743V122.506H128.771V116.363C128.806 115.679 128.586 115.007 128.158 114.473C127.75 113.999 127.148 113.737 126.522 113.764C124.684 113.764 123.762 115.039 123.762 117.591V122.509H120.824V111.404H123.762V112.407C124.694 111.5 125.959 111.019 127.259 111.073C128.469 111.021 129.646 111.495 130.483 112.373H130.486Z" fill="white"/>
<path fill-rule="evenodd" clip-rule="evenodd" d="M135.447 106.786V122.664H138.385V106.786H135.447Z" fill="white"/>
<path fill-rule="evenodd" clip-rule="evenodd" d="M154.985 122.084H152.534L150.132 115.543L147.708 122.084H145.262L141.145 110.959H144.283L146.596 117.611L148.98 110.959H151.271L153.656 117.633L155.968 110.959H159.107L154.985 122.084V122.084Z" fill="white"/>
<path d="M11.9772 25.9256C15.3031 17.8925 22.0192 11.5618 31.9328 7.11161C41.4312 2.8467 53.4674 0.474562 67.7026 0.06438C96.8849 -0.778223 132.114 6.68907 166.893 21.0973C169.393 22.1327 171.872 23.1952 174.323 24.2849L170.856 24.2948C169.369 23.6499 167.869 23.0148 166.356 22.3897C95.1008 -7.12369 26.425 -5.29764 13.2695 26.4618C9.45926 35.6588 10.717 46.3705 16.1581 57.6678C29.4989 85.3872 68.014 116.623 118.639 137.592C123.537 139.62 128.439 141.508 133.334 143.255C163.033 153.86 192.366 159.235 217.254 158.516C231.306 158.111 243.159 155.78 252.49 151.592C262.07 147.293 268.541 141.212 271.726 133.519C274.6 126.578 274.59 118.775 272.072 110.507L273.147 109.294C276.097 118.407 276.058 126.727 273.021 134.056C269.693 142.089 262.979 148.419 253.063 152.87C243.565 157.134 231.531 159.507 217.296 159.917C215.808 159.959 214.306 159.981 212.789 159.981C187.701 159.981 158.56 154.132 129.242 143.255C125.528 141.879 121.815 140.421 118.103 138.884C83.3242 124.478 53.1338 104.851 33.0941 83.618C25.2142 75.2686 19.2443 67.0303 15.2883 59.0515C14.3345 57.1316 13.4993 55.2289 12.7827 53.3436C8.92058 43.1854 8.64878 33.9612 11.9772 25.9256V25.9256Z" fill="url(#paint10_linear_6_544)"/>
<path d="M11.9772 25.9256C15.3031 17.8925 22.0192 11.5618 31.9328 7.11161C41.4312 2.8467 53.4674 0.474562 67.7026 0.06438C96.8849 -0.778223 132.114 6.68907 166.893 21.0973C169.393 22.1327 171.872 23.1952 174.323 24.2849L170.856 24.2948C169.369 23.6499 167.869 23.0148 166.356 22.3897C95.1008 -7.12369 26.425 -5.29764 13.2695 26.4618C9.45926 35.6588 10.717 46.3705 16.1581 57.6678C29.4989 85.3872 68.014 116.623 118.639 137.592C123.537 139.62 128.439 141.508 133.334 143.255C163.033 153.86 192.366 159.235 217.254 158.516C231.306 158.111 243.159 155.78 252.49 151.592C262.07 147.293 268.541 141.212 271.726 133.519C274.6 126.578 274.59 118.775 272.072 110.507L273.147 109.294C276.097 118.407 276.058 126.727 273.021 134.056C269.693 142.089 262.979 148.419 253.063 152.87C243.565 157.134 231.531 159.507 217.296 159.917C215.808 159.959 214.306 159.981 212.789 159.981C187.701 159.981 158.56 154.132 129.242 143.255C125.528 141.879 121.815 140.421 118.103 138.884C83.3242 124.478 53.1338 104.851 33.0941 83.618C25.2142 75.2686 19.2443 67.0303 15.2883 59.0515C14.3345 57.1316 13.4993 55.2289 12.7827 53.3436C8.92058 43.1854 8.64878 33.9612 11.9772 25.9256V25.9256Z" fill="url(#paint11_radial_6_544)"/>
<path d="M11.9772 25.9256C15.3031 17.8925 22.0192 11.5618 31.9328 7.11161C41.4312 2.8467 53.4674 0.474562 67.7026 0.06438C96.8849 -0.778223 132.114 6.68907 166.893 21.0973C169.393 22.1327 171.872 23.1952 174.323 24.2849L170.856 24.2948C169.369 23.6499 167.869 23.0148 166.356 22.3897C95.1008 -7.12369 26.425 -5.29764 13.2695 26.4618C9.45926 35.6588 10.717 46.3705 16.1581 57.6678C29.4989 85.3872 68.014 116.623 118.639 137.592C123.537 139.62 128.439 141.508 133.334 143.255C163.033 153.86 192.366 159.235 217.254 158.516C231.306 158.111 243.159 155.78 252.49 151.592C262.07 147.293 268.541 141.212 271.726 133.519C274.6 126.578 274.59 118.775 272.072 110.507L273.147 109.294C276.097 118.407 276.058 126.727 273.021 134.056C269.693 142.089 262.979 148.419 253.063 152.87C243.565 157.134 231.531 159.507 217.296 159.917C215.808 159.959 214.306 159.981 212.789 159.981C187.701 159.981 158.56 154.132 129.242 143.255C125.528 141.879 121.815 140.421 118.103 138.884C83.3242 124.478 53.1338 104.851 33.0941 83.618C25.2142 75.2686 19.2443 67.0303 15.2883 59.0515C14.3345 57.1316 13.4993 55.2289 12.7827 53.3436C8.92058 43.1854 8.64878 33.9612 11.9772 25.9256V25.9256Z" fill="url(#paint12_radial_6_544)"/>
<path d="M11.9772 25.9256C15.3031 17.8925 22.0192 11.5618 31.9328 7.11161C41.4312 2.8467 53.4674 0.474562 67.7026 0.06438C96.8849 -0.778223 132.114 6.68907 166.893 21.0973C169.393 22.1327 171.872 23.1952 174.323 24.2849L170.856 24.2948C169.369 23.6499 167.869 23.0148 166.356 22.3897C95.1008 -7.12369 26.425 -5.29764 13.2695 26.4618C9.45926 35.6588 10.717 46.3705 16.1581 57.6678C29.4989 85.3872 68.014 116.623 118.639 137.592C123.537 139.62 128.439 141.508 133.334 143.255C163.033 153.86 192.366 159.235 217.254 158.516C231.306 158.111 243.159 155.78 252.49 151.592C262.07 147.293 268.541 141.212 271.726 133.519C274.6 126.578 274.59 118.775 272.072 110.507L273.147 109.294C276.097 118.407 276.058 126.727 273.021 134.056C269.693 142.089 262.979 148.419 253.063 152.87C243.565 157.134 231.531 159.507 217.296 159.917C215.808 159.959 214.306 159.981 212.789 159.981C187.701 159.981 158.56 154.132 129.242 143.255C125.528 141.879 121.815 140.421 118.103 138.884C83.3242 124.478 53.1338 104.851 33.0941 83.618C25.2142 75.2686 19.2443 67.0303 15.2883 59.0515C14.3345 57.1316 13.4993 55.2289 12.7827 53.3436C8.92058 43.1854 8.64878 33.9612 11.9772 25.9256V25.9256Z" fill="url(#paint13_radial_6_544)"/>
<path d="M273.021 25.9256C269.695 17.8925 262.979 11.5618 253.065 7.11161C243.567 2.8467 231.531 0.474562 217.295 0.06438C188.113 -0.778223 152.884 6.68907 118.105 21.0973C115.605 22.1327 113.126 23.1952 110.675 24.2849L114.142 24.2948C115.63 23.6499 117.129 23.0148 118.642 22.3897C189.897 -7.12369 258.573 -5.29764 271.729 26.4618C275.539 35.6588 274.281 46.3705 268.84 57.6678C255.499 85.3872 216.984 116.623 166.359 137.592C161.461 139.62 156.559 141.508 151.664 143.255C121.965 153.86 92.6322 159.235 67.7445 158.516C53.692 158.111 41.8387 155.78 32.5083 151.592C22.9284 147.293 16.4569 141.212 13.2718 133.519C10.398 126.578 10.4079 118.775 12.9259 110.507L11.851 109.294C8.90063 118.407 8.94017 126.727 11.977 134.056C15.3054 142.089 22.019 148.419 31.9351 152.87C41.4335 157.134 53.4672 159.507 67.7025 159.917C69.19 159.959 70.6924 159.981 72.2095 159.981C97.2974 159.981 126.438 154.132 155.756 143.255C159.47 141.879 163.183 140.421 166.895 138.884C201.674 124.478 231.864 104.851 251.904 83.618C259.784 75.2686 265.754 67.0303 269.71 59.0515C270.664 57.1316 271.499 55.2289 272.215 53.3436C276.077 43.1854 276.349 33.9612 273.021 25.9256V25.9256Z" fill="url(#paint14_linear_6_544)"/>
<path d="M273.021 25.9256C269.695 17.8925 262.979 11.5618 253.065 7.11161C243.567 2.8467 231.531 0.474562 217.295 0.06438C188.113 -0.778223 152.884 6.68907 118.105 21.0973C115.605 22.1327 113.126 23.1952 110.675 24.2849L114.142 24.2948C115.63 23.6499 117.129 23.0148 118.642 22.3897C189.897 -7.12369 258.573 -5.29764 271.729 26.4618C275.539 35.6588 274.281 46.3705 268.84 57.6678C255.499 85.3872 216.984 116.623 166.359 137.592C161.461 139.62 156.559 141.508 151.664 143.255C121.965 153.86 92.6322 159.235 67.7445 158.516C53.692 158.111 41.8387 155.78 32.5083 151.592C22.9284 147.293 16.4569 141.212 13.2718 133.519C10.398 126.578 10.4079 118.775 12.9259 110.507L11.851 109.294C8.90063 118.407 8.94017 126.727 11.977 134.056C15.3054 142.089 22.019 148.419 31.9351 152.87C41.4335 157.134 53.4672 159.507 67.7025 159.917C69.19 159.959 70.6924 159.981 72.2095 159.981C97.2974 159.981 126.438 154.132 155.756 143.255C159.47 141.879 163.183 140.421 166.895 138.884C201.674 124.478 231.864 104.851 251.904 83.618C259.784 75.2686 265.754 67.0303 269.71 59.0515C270.664 57.1316 271.499 55.2289 272.215 53.3436C276.077 43.1854 276.349 33.9612 273.021 25.9256V25.9256Z" fill="url(#paint15_radial_6_544)"/>
<path d="M273.021 25.9256C269.695 17.8925 262.979 11.5618 253.065 7.11161C243.567 2.8467 231.531 0.474562 217.295 0.06438C188.113 -0.778223 152.884 6.68907 118.105 21.0973C115.605 22.1327 113.126 23.1952 110.675 24.2849L114.142 24.2948C115.63 23.6499 117.129 23.0148 118.642 22.3897C189.897 -7.12369 258.573 -5.29764 271.729 26.4618C275.539 35.6588 274.281 46.3705 268.84 57.6678C255.499 85.3872 216.984 116.623 166.359 137.592C161.461 139.62 156.559 141.508 151.664 143.255C121.965 153.86 92.6322 159.235 67.7445 158.516C53.692 158.111 41.8387 155.78 32.5083 151.592C22.9284 147.293 16.4569 141.212 13.2718 133.519C10.398 126.578 10.4079 118.775 12.9259 110.507L11.851 109.294C8.90063 118.407 8.94017 126.727 11.977 134.056C15.3054 142.089 22.019 148.419 31.9351 152.87C41.4335 157.134 53.4672 159.507 67.7025 159.917C69.19 159.959 70.6924 159.981 72.2095 159.981C97.2974 159.981 126.438 154.132 155.756 143.255C159.47 141.879 163.183 140.421 166.895 138.884C201.674 124.478 231.864 104.851 251.904 83.618C259.784 75.2686 265.754 67.0303 269.71 59.0515C270.664 57.1316 271.499 55.2289 272.215 53.3436C276.077 43.1854 276.349 33.9612 273.021 25.9256V25.9256Z" fill="url(#paint16_radial_6_544)"/>
</g>
<defs>
<linearGradient id="paint0_linear_6_544" x1="142.452" y1="74.7471" x2="142.452" y2="135.533" gradientUnits="userSpaceOnUse">
<stop stop-color="#D9D9D9"/>
<stop offset="1" stop-color="#D9D9D9" stop-opacity="0"/>
</linearGradient>
<linearGradient id="paint1_linear_6_544" x1="0" y1="79.9906" x2="285" y2="79.9906" gradientUnits="userSpaceOnUse">
<stop stop-color="#996DFF"/>
<stop offset="0.5" stop-color="#35E8B3"/>
<stop offset="1" stop-color="#E2D45C"/>
</linearGradient>
<linearGradient id="paint2_linear_6_544" x1="142.499" y1="91.9005" x2="142.499" y2="136.151" gradientUnits="userSpaceOnUse">
<stop stop-color="#28203E"/>
<stop offset="1" stop-color="#121214" stop-opacity="0"/>
</linearGradient>
<linearGradient id="paint3_linear_6_544" x1="28.7872" y1="61.008" x2="28.7872" y2="78.4457" gradientUnits="userSpaceOnUse">
<stop stop-color="#A9A9AD"/>
<stop offset="1" stop-color="#A9A9AD" stop-opacity="0"/>
</linearGradient>
<linearGradient id="paint4_linear_6_544" x1="61.9923" y1="61.0078" x2="61.9923" y2="78.4455" gradientUnits="userSpaceOnUse">
<stop stop-color="#A9A9AD"/>
<stop offset="1" stop-color="#A9A9AD" stop-opacity="0"/>
</linearGradient>
<linearGradient id="paint5_linear_6_544" x1="100.184" y1="61.0078" x2="100.184" y2="78.4455" gradientUnits="userSpaceOnUse">
<stop stop-color="#A9A9AD"/>
<stop offset="1" stop-color="#A9A9AD" stop-opacity="0"/>
</linearGradient>
<linearGradient id="paint6_linear_6_544" x1="140.137" y1="61.008" x2="140.137" y2="78.4457" gradientUnits="userSpaceOnUse">
<stop stop-color="#A9A9AD"/>
<stop offset="1" stop-color="#A9A9AD" stop-opacity="0"/>
</linearGradient>
<linearGradient id="paint7_linear_6_544" x1="179.341" y1="61.0079" x2="179.341" y2="78.4455" gradientUnits="userSpaceOnUse">
<stop stop-color="#A9A9AD"/>
<stop offset="1" stop-color="#A9A9AD" stop-opacity="0"/>
</linearGradient>
<linearGradient id="paint8_linear_6_544" x1="212.569" y1="61.0078" x2="212.569" y2="78.4454" gradientUnits="userSpaceOnUse">
<stop stop-color="#A9A9AD"/>
<stop offset="1" stop-color="#A9A9AD" stop-opacity="0"/>
</linearGradient>
<linearGradient id="paint9_linear_6_544" x1="246.98" y1="61.0082" x2="246.98" y2="78.4459" gradientUnits="userSpaceOnUse">
<stop stop-color="#A9A9AD"/>
<stop offset="1" stop-color="#A9A9AD" stop-opacity="0"/>
</linearGradient>
<linearGradient id="paint10_linear_6_544" x1="258.588" y1="114.53" x2="66.0989" y2="115.518" gradientUnits="userSpaceOnUse">
<stop stop-color="#996DFF"/>
<stop offset="0.5" stop-color="#35E8B3"/>
<stop offset="1" stop-color="#E2D45C"/>
</linearGradient>
<radialGradient id="paint11_radial_6_544" cx="0" cy="0" r="1" gradientUnits="userSpaceOnUse" gradientTransform="translate(140.741 146.195) rotate(15.7611) scale(129.396 214.872)">
<stop stop-color="#171226"/>
<stop offset="1" stop-color="#171226" stop-opacity="0"/>
</radialGradient>
<radialGradient id="paint12_radial_6_544" cx="0" cy="0" r="1" gradientUnits="userSpaceOnUse" gradientTransform="translate(173.919 24.9971) rotate(-157.036) scale(29.1229 48.361)">
<stop stop-color="#261945"/>
<stop offset="1" stop-color="#261945" stop-opacity="0"/>
</radialGradient>
<radialGradient id="paint13_radial_6_544" cx="0" cy="0" r="1" gradientUnits="userSpaceOnUse" gradientTransform="translate(273.453 107.26) rotate(76.7293) scale(32.9986 54.7968)">
<stop stop-color="#191326"/>
<stop offset="1" stop-color="#191326" stop-opacity="0"/>
</radialGradient>
<linearGradient id="paint14_linear_6_544" x1="149.831" y1="17.7253" x2="192.856" y2="126.803" gradientUnits="userSpaceOnUse">
<stop stop-color="#996DFF"/>
<stop offset="0.5" stop-color="#35E8B3"/>
<stop offset="1" stop-color="#E2D45C"/>
</linearGradient>
<radialGradient id="paint15_radial_6_544" cx="0" cy="0" r="1" gradientUnits="userSpaceOnUse" gradientTransform="translate(108.017 27.4211) rotate(-19.3523) scale(65.8335 109.322)">
<stop stop-color="#171225"/>
<stop offset="1" stop-color="#171225" stop-opacity="0"/>
</radialGradient>
<radialGradient id="paint16_radial_6_544" cx="0" cy="0" r="1" gradientUnits="userSpaceOnUse" gradientTransform="translate(11.9683 108.775) rotate(67.4706) scale(44.2838 73.5369)">
<stop stop-color="#191327"/>
<stop offset="1" stop-color="#191327" stop-opacity="0"/>
</radialGradient>
<clipPath id="clip0_6_544">
<rect width="285" height="159.981" fill="white"/>
</clipPath>
</defs>
</svg>
